<?xml version="1.0" standalone="no"?>
<!DOCTYPE svg PUBLIC "-//W3C//DTD SVG 20010904//EN"
 "http://www.w3.org/TR/2001/REC-SVG-20010904/DTD/svg10.dtd">
<svg version="1.0" xmlns="http://www.w3.org/2000/svg"
 width="1448.000000pt" height="1448.000000pt" viewBox="0 0 1448.000000 1448.000000"
 preserveAspectRatio="xMidYMid meet">
<metadata>
Created by potrace 1.11, written by Peter Selinger 2001-2013
</metadata>
<g transform="translate(0.000000,1448.000000) scale(0.100000,-0.100000)"
fill="#000000" stroke="none">
<path d="M6725 13203 c-22 -2 -49 -7 -60 -12 -112 -45 -130 -48 -217 -34 -32
5 -63 6 -70 1 -9 -5 -5 -8 11 -8 34 0 20 -10 -20 -15 -25 -3 -30 -2 -19 5 11
7 -1 10 -40 10 -30 1 -75 3 -99 6 -30 3 -47 0 -52 -8 -6 -9 -37 -13 -97 -13
-70 -1 -95 -5 -118 -20 -26 -17 -27 -19 -9 -25 19 -7 19 -7 -3 -19 -21 -11
-26 -8 -23 12 1 5 -4 7 -11 4 -7 -2 -12 -9 -11 -15 5 -22 -29 -34 -99 -37 -49
-1 -90 -9 -122 -24 -27 -11 -62 -21 -78 -21 -16 0 -39 -5 -51 -12 -22 -12
-171 -37 -257 -43 -25 -2 -52 -5 -60 -8 -33 -11 -90 -15 -90 -6 0 5 -9 9 -20
9 -11 0 -20 -3 -20 -7 0 -5 -15 -8 -33 -9 -45 -1 -175 -99 -233 -175 -33 -44
-64 -97 -69 -121 -4 -16 -12 -28 -19 -28 -6 0 -11 -10 -11 -22 -1 -13 -4 -34
-9 -48 -5 -19 -5 -21 3 -10 9 13 11 13 11 -2 0 -10 -4 -18 -10 -18 -5 0 -10
-7 -10 -15 0 -9 -9 -15 -25 -15 -25 0 -29 -8 -26 -42 1 -10 -1 -18 -5 -18 -4
0 -13 8 -20 18 -11 14 -12 9 -9 -38 1 -30 6 -63 10 -72 5 -12 2 -18 -6 -18 -9
-1 -5 -8 9 -19 12 -11 22 -25 22 -33 1 -7 21 -29 45 -48 25 -19 45 -41 45 -47
0 -7 4 -13 8 -13 4 0 9 -12 10 -27 1 -15 7 -30 14 -34 7 -5 4 -11 -11 -20 -31
-20 -26 -29 15 -29 l37 0 -34 -23 c-19 -12 -32 -26 -29 -30 3 -5 -10 -15 -29
-24 -30 -15 -31 -18 -16 -29 15 -11 15 -13 -2 -18 -21 -7 -56 -60 -46 -70 3
-3 -8 -11 -26 -17 -31 -11 -31 -12 -16 -35 9 -14 13 -29 9 -35 -4 -8 -9 -7
-15 2 -6 10 -9 11 -9 2 0 -8 -16 -13 -42 -14 -39 0 -40 -1 -18 -10 13 -6 26
-12 28 -14 7 -6 -25 -35 -39 -35 -7 0 -5 -8 7 -21 21 -24 21 -25 -8 -56 -11
-12 -18 -29 -15 -37 3 -8 -1 -20 -9 -27 -8 -6 -12 -20 -9 -29 4 -11 -1 -20
-12 -25 -17 -6 -17 -7 1 -21 16 -11 17 -17 8 -26 -17 -17 -15 -28 6 -28 14 -1
14 -3 -4 -13 -12 -7 -19 -18 -17 -24 3 -7 -2 -13 -11 -13 -17 0 -22 -16 -7
-22 8 -3 -7 -91 -21 -128 -13 -32 -17 -94 -7 -112 7 -13 7 -23 0 -32 -6 -7 -8
-15 -5 -19 3 -3 1 -14 -5 -25 -8 -15 -8 -21 1 -24 8 -3 9 -11 3 -24 -11 -26
-14 -45 -19 -139 -2 -44 -7 -93 -11 -109 -5 -19 -4 -31 5 -36 9 -6 13 -49 14
-159 1 -123 4 -154 16 -161 12 -8 12 -10 1 -10 -11 0 -10 -5 4 -20 15 -17 17
-26 8 -53 -14 -46 4 -101 34 -105 17 -3 24 3 29 22 3 14 10 26 15 26 5 0 9 6
9 14 0 8 6 17 13 19 9 4 9 6 -1 6 -8 1 -2 11 13 25 15 14 25 26 24 28 -6 8 28
48 41 48 13 0 13 1 0 10 -13 8 -11 11 7 16 13 4 20 11 16 20 -4 10 3 14 21 14
14 0 26 4 26 8 0 23 82 59 170 75 98 19 229 18 253 -1 7 -5 26 -10 42 -9 34 0
66 -11 78 -27 6 -7 7 -5 4 5 -4 12 1 17 19 17 19 0 24 -5 19 -16 -4 -12 -1
-11 16 4 16 13 23 15 26 7 8 -21 26 -14 20 7 -3 11 0 20 6 20 7 1 2 9 -10 19
-13 11 -23 24 -23 29 0 5 -7 15 -15 22 -25 21 -17 32 10 14 30 -20 35 -2 8 29
-14 16 -15 19 -3 15 8 -2 20 -14 25 -25 21 -40 37 -55 49 -42 8 8 8 13 -2 16
-21 8 -42 33 -42 51 0 15 2 15 10 2 5 -8 10 -10 10 -4 0 11 -66 84 -76 84 -3
0 -2 -10 2 -22 4 -13 9 -30 11 -38 5 -15 -11 6 -60 79 -15 22 -32 41 -38 41
-8 0 -8 -4 0 -14 7 -9 8 -17 2 -20 -5 -3 -12 0 -14 6 -4 10 -7 10 -14 1 -5 -7
-14 -9 -22 -4 -10 7 -9 9 3 14 9 4 16 12 16 18 0 8 -3 9 -13 0 -8 -6 -29 -8
-48 -5 -19 3 -62 7 -95 9 -34 1 -76 10 -94 19 -41 20 -46 20 -30 1 16 -19 5
-34 -12 -17 -15 15 -48 16 -48 1 0 -6 -9 -8 -20 -4 -14 4 -20 2 -18 -7 2 -8
-10 -14 -35 -16 -20 -2 -35 -7 -32 -13 4 -5 -5 -9 -18 -9 -30 0 -151 -63 -188
-96 -14 -13 -28 -24 -32 -24 -13 0 5 85 19 93 8 4 14 21 14 36 0 16 8 39 19
52 10 13 21 42 25 64 4 22 12 45 17 51 5 7 9 16 8 20 -1 5 3 22 9 37 7 16 12
39 12 51 0 12 3 25 6 29 13 12 14 101 1 109 -9 6 -9 10 1 20 13 13 17 39 5 37
-21 -3 -24 3 -10 25 9 13 18 48 21 77 5 58 40 164 62 190 8 8 14 21 14 27 0 7
5 12 10 12 6 0 10 6 10 14 0 9 15 17 39 21 27 4 41 13 44 26 3 10 13 19 22 19
9 0 13 5 10 10 -4 6 10 10 34 10 26 0 47 7 58 19 22 22 78 42 99 34 8 -3 14
-2 13 3 -4 27 15 54 38 54 21 0 23 3 14 14 -15 18 4 32 37 27 17 -2 22 3 22
19 0 18 3 19 20 10 23 -13 28 7 8 29 -11 12 -9 13 7 6 43 -17 75 -18 75 -2 0
10 14 18 40 22 22 4 42 10 45 15 3 4 15 6 26 3 18 -5 20 -3 14 17 -6 19 -4 22
10 16 10 -3 23 -2 30 4 9 8 15 8 20 0 9 -15 25 -12 25 5 0 18 20 20 20 3 1 -8
6 -6 14 5 9 11 17 14 20 8 9 -15 36 -2 36 18 0 14 2 14 10 1 8 -12 10 -10 11
10 1 18 3 20 6 7 3 -10 11 -16 18 -13 8 3 16 0 19 -7 3 -9 5 -9 5 1 1 6 10 12
21 12 15 0 20 -7 21 -27 0 -16 3 -22 6 -13 4 8 16 22 27 31 18 15 22 15 29 2
8 -12 10 -12 21 3 12 16 14 15 29 -6 11 -16 21 -20 39 -15 18 5 20 4 8 -4 -12
-9 -10 -11 13 -12 50 -3 100 -27 93 -46 -4 -8 3 -13 18 -13 19 0 23 4 19 19
-3 14 3 21 26 29 17 6 31 16 31 23 0 7 9 9 26 5 17 -5 35 -1 50 9 21 14 25 14
30 1 5 -13 9 -13 27 -1 31 19 113 30 122 15 5 -8 14 -6 32 5 21 14 29 15 48 5
13 -7 28 -9 34 -5 18 10 122 -17 129 -34 4 -9 20 -17 37 -17 19 -1 44 -13 64
-32 61 -55 71 -62 91 -62 14 0 20 -7 20 -21 0 -15 5 -19 18 -15 11 4 28 -2 42
-14 13 -11 28 -20 34 -20 6 0 28 -11 48 -25 20 -14 64 -31 98 -39 34 -8 73
-23 87 -33 48 -34 107 -62 113 -53 6 10 70 -15 70 -27 0 -5 10 -10 22 -10 13
-1 24 -7 26 -12 2 -6 12 -21 22 -33 l19 -23 1 23 c0 20 2 21 23 10 12 -7 25
-17 30 -23 4 -6 10 -5 16 4 7 11 12 11 32 -2 13 -8 44 -21 68 -28 30 -9 49
-22 60 -41 9 -16 22 -26 31 -23 8 2 40 0 70 -4 30 -5 47 -9 37 -10 -24 -1 -12
-21 13 -21 18 0 70 -40 70 -53 0 -3 -13 1 -29 11 -16 9 -27 20 -24 25 3 5 -3
7 -12 5 -32 -6 -27 -23 22 -73 l48 -48 -40 6 c-22 4 -41 11 -43 17 -2 5 -11
10 -19 10 -9 0 -13 -6 -9 -15 4 -11 -1 -15 -19 -15 -14 0 -25 -4 -25 -10 0 -5
4 -10 8 -10 14 0 52 -36 52 -50 0 -7 -6 -10 -12 -7 -47 20 -68 34 -68 45 0 14
-60 43 -72 35 -5 -2 14 -22 42 -44 51 -41 59 -54 38 -62 -7 -3 -2 -6 11 -6 18
-1 22 -5 16 -18 -4 -10 -8 -29 -9 -42 -1 -14 -9 -27 -21 -32 -17 -6 -17 -8 -2
-8 9 -1 17 -7 17 -15 0 -8 12 -24 28 -35 l27 -20 -27 -1 c-16 0 -28 -6 -28
-12 1 -20 27 -50 34 -39 3 5 0 12 -6 14 -15 6 8 27 31 27 11 0 11 -3 2 -14
-10 -12 -7 -18 16 -30 l28 -15 -32 6 c-42 7 -42 -7 -3 -40 19 -16 30 -35 30
-51 0 -15 6 -26 13 -26 8 0 13 9 13 20 -1 28 18 30 22 2 2 -13 14 -28 27 -34
14 -6 22 -15 19 -20 -3 -4 -11 -6 -17 -2 -7 3 -4 -1 6 -9 9 -8 17 -19 17 -24
0 -5 18 -15 40 -22 29 -9 40 -17 40 -31 0 -14 -7 -20 -21 -20 -11 0 -18 -4
-15 -8 3 -5 18 -7 34 -4 27 4 29 2 25 -23 -4 -21 -1 -27 16 -32 14 -4 21 -13
21 -30 0 -23 2 -24 43 -19 30 4 36 3 22 -3 -16 -8 -17 -10 -3 -10 20 -1 99
-66 91 -75 -4 -3 -15 -6 -25 -6 -10 0 -18 -7 -18 -16 0 -12 6 -15 24 -10 14 3
27 2 31 -3 3 -5 -7 -11 -22 -13 l-28 -3 30 -16 c17 -9 28 -21 26 -30 -14 -51
-12 -59 15 -83 16 -14 35 -26 42 -26 21 0 14 -40 -7 -40 -27 0 -37 -21 -18
-35 10 -7 17 -22 17 -34 0 -11 5 -21 10 -21 6 0 10 -9 10 -21 0 -15 -4 -19
-19 -14 -11 3 -22 1 -26 -5 -9 -14 -2 -21 21 -24 25 -4 29 -23 6 -30 -11 -4
-30 -22 -43 -40 -15 -23 -28 -32 -41 -28 -12 3 -18 -1 -18 -12 0 -9 4 -16 9
-16 11 0 2 -38 -11 -46 -5 -3 -16 2 -23 12 -13 18 -14 17 -15 -13 0 -18 -5
-33 -10 -33 -7 0 -7 -7 0 -20 6 -12 8 -30 4 -42 -5 -15 -3 -19 7 -13 8 5 6 -1
-3 -12 -20 -22 -23 -48 -8 -58 5 -3 -1 -17 -13 -31 -12 -14 -27 -40 -33 -57
-7 -21 -17 -31 -28 -29 -9 2 -16 -2 -16 -8 0 -5 5 -10 10 -10 6 0 10 -9 10
-20 0 -11 5 -20 10 -20 18 0 11 -26 -15 -54 -23 -24 -32 -68 -26 -121 1 -16
-61 -37 -73 -25 -7 7 -6 14 1 21 18 18 4 39 -26 39 -51 0 -68 -39 -25 -59 17
-7 24 -17 20 -26 -3 -8 -1 -15 4 -15 16 0 11 -37 -5 -44 -12 -4 -13 -10 -6
-24 10 -19 -2 -45 -35 -80 -28 -28 -44 -8 -22 28 15 24 0 56 -26 54 -9 -1 -16
4 -16 12 0 17 -16 18 -26 3 -3 -6 -1 -14 5 -18 19 -12 -5 -60 -34 -71 -25 -9
-26 -13 -19 -56 6 -44 6 -46 -14 -35 -31 17 -36 15 -90 -38 -46 -45 -50 -53
-45 -84 6 -37 -12 -60 -29 -36 -7 11 -11 11 -15 2 -6 -16 -30 -17 -35 -1 -2 6
-9 8 -16 4 -8 -5 -6 -17 8 -44 25 -46 25 -46 -6 -76 l-27 -24 22 -37 22 -37
-21 -18 c-22 -19 -21 -19 17 -22 36 -3 38 -5 41 -40 3 -40 17 -51 25 -20 3 9
5 -11 6 -45 l1 -62 32 6 c26 5 30 4 25 -10 -4 -10 -2 -17 3 -17 16 0 12 -27
-5 -34 -8 -3 -12 -12 -9 -21 3 -8 3 -27 0 -41 -6 -23 -11 -26 -35 -21 -16 3
-35 1 -44 -6 -16 -13 -29 -87 -15 -87 4 0 8 6 8 13 0 6 12 21 27 31 23 17 26
18 35 2 13 -23 22 -20 36 12 27 61 49 86 81 93 58 12 82 59 30 59 -10 0 -19 6
-19 13 0 9 13 13 40 13 42 -1 60 17 22 22 -35 5 -20 26 22 33 21 3 42 12 46
18 4 8 22 11 43 10 20 -2 39 0 43 4 13 13 24 7 24 -13 0 -11 5 -20 11 -20 20
0 3 -24 -22 -30 -17 -4 -25 -14 -27 -33 -3 -21 4 -31 30 -47 26 -16 29 -20 13
-20 -12 0 -27 -13 -37 -30 -14 -24 -24 -30 -53 -30 -38 0 -40 -2 -24 -31 7
-14 16 -18 30 -14 20 7 28 -18 9 -30 -5 -3 -10 -14 -10 -24 0 -20 -43 -64 -53
-54 -4 3 0 17 8 30 18 27 8 30 -44 12 -35 -12 -39 -23 -14 -37 15 -9 14 -11
-5 -23 -14 -9 -22 -24 -22 -42 0 -20 -6 -30 -20 -34 -29 -8 -25 -20 10 -26 32
-7 40 -24 16 -33 -8 -3 -12 -12 -9 -20 3 -9 -2 -14 -16 -14 -16 0 -21 -6 -21
-25 0 -14 5 -25 10 -25 6 0 10 -7 10 -15 0 -8 -7 -15 -15 -15 -8 0 -15 5 -15
11 0 5 -4 7 -10 4 -5 -3 -10 -15 -10 -25 0 -13 -8 -20 -27 -22 -24 -3 -28 -8
-31 -40 -2 -24 -8 -38 -17 -38 -8 0 -22 -13 -31 -29 -19 -31 -44 -31 -44 0 0
23 -18 25 -27 2 -4 -10 2 -23 17 -35 18 -15 20 -21 10 -33 -7 -8 -21 -15 -32
-15 -32 0 -98 -42 -98 -62 0 -10 -7 -18 -15 -18 -8 0 -15 -4 -15 -9 0 -5 -18
-26 -40 -47 -21 -20 -37 -40 -35 -44 6 -10 -46 -46 -77 -54 -16 -3 -28 -11
-28 -16 0 -12 -48 -60 -60 -60 -4 0 -10 5 -12 11 -3 9 -9 9 -26 0 -13 -7 -19
-17 -16 -26 4 -8 1 -15 -4 -15 -6 0 -14 9 -17 20 -3 11 -13 20 -21 20 -17 0
-17 -1 1 -36 21 -41 19 -64 -5 -64 -11 0 -20 -5 -20 -10 0 -18 -53 -33 -72
-21 -12 7 -20 6 -29 -5 -10 -13 -10 -17 1 -24 8 -5 11 -13 6 -17 -5 -4 -11 -2
-13 5 -8 21 -20 13 -26 -18 -4 -18 -13 -30 -22 -30 -8 0 -15 -6 -15 -14 0 -9
-8 -12 -25 -8 -18 3 -25 0 -25 -12 0 -25 -39 -59 -61 -53 -14 4 -19 1 -17 -10
3 -17 -48 -41 -88 -42 -12 -1 -24 -8 -28 -16 -3 -8 -14 -15 -25 -15 -15 0 -19
-5 -14 -16 5 -13 2 -15 -16 -9 -17 5 -22 3 -19 -8 2 -9 -1 -16 -7 -15 -5 0 -9
4 -8 9 2 5 -10 9 -27 9 -30 0 -57 -30 -52 -57 2 -7 -2 -13 -8 -13 -5 0 -10 7
-10 15 0 23 -21 18 -27 -6 -5 -16 -12 -20 -31 -16 -18 3 -32 -3 -53 -24 -16
-16 -32 -29 -36 -29 -4 -1 -26 -9 -48 -20 -22 -11 -48 -19 -57 -20 -11 0 -18
-8 -18 -21 0 -19 -4 -20 -42 -14 -24 4 -44 11 -46 16 -6 15 -22 10 -22 -7 0
-12 -7 -14 -30 -9 -17 4 -36 3 -43 -2 -7 -6 -42 -11 -79 -12 -56 -1 -71 2 -88
19 -11 11 -34 23 -51 27 -19 3 -28 10 -25 19 5 14 -20 27 -35 18 -12 -7 -39
20 -39 39 0 10 -7 13 -18 11 -9 -3 -27 4 -39 15 -27 26 -46 27 -41 4 2 -10 9
-17 14 -16 6 1 11 -4 11 -12 0 -12 -6 -11 -29 3 -15 9 -28 24 -28 34 0 10 -7
18 -15 18 -8 0 -19 9 -25 20 -6 11 -17 20 -24 20 -10 0 -12 7 -8 22 4 17 2 20
-11 15 -13 -5 -17 -1 -17 14 0 11 -4 18 -9 15 -4 -3 -7 -16 -6 -30 2 -17 -2
-23 -13 -22 -9 2 -18 9 -20 16 -3 9 1 11 12 7 10 -4 15 -3 11 3 -3 5 -20 7
-37 3 -23 -5 -29 -3 -24 6 5 7 14 10 21 7 13 -5 35 12 35 26 0 14 -38 8 -44
-7 -3 -8 -11 -15 -17 -15 -7 0 -5 9 5 25 9 14 12 25 7 25 -5 0 -13 -4 -16 -10
-11 -17 -35 -11 -35 9 0 11 -8 22 -18 25 -10 3 -23 21 -30 38 -12 32 -13 32
-28 13 -36 -46 -35 -51 5 -102 71 -88 225 -241 296 -294 39 -28 97 -64 131
-80 33 -15 65 -33 71 -41 6 -7 30 -78 52 -158 23 -80 45 -152 51 -161 5 -9 14
-45 21 -80 19 -94 29 -94 30 2 1 81 2 82 10 34 5 -27 11 -79 14 -115 7 -106
16 -162 35 -220 52 -163 64 -221 35 -170 -8 14 -14 31 -15 38 0 7 -8 21 -17
30 -16 16 -16 16 -8 -3 14 -34 17 -82 6 -89 -7 -5 -11 4 -11 26 0 29 -6 65
-40 231 -8 40 -16 54 -26 44 -16 -15 -86 -241 -104 -336 -12 -58 -27 -126 -35
-151 -7 -25 -16 -73 -19 -107 -3 -34 -17 -90 -30 -125 -13 -35 -32 -84 -41
-110 -9 -27 -23 -48 -31 -48 -14 0 -72 -31 -116 -61 -14 -11 -30 -19 -35 -19
-4 0 -39 -20 -76 -45 -59 -39 -76 -45 -120 -45 -34 0 -63 -7 -85 -20 -38 -23
-88 -98 -103 -155 -12 -43 -37 -78 -50 -69 -13 7 -33 -6 -63 -43 -15 -17 -22
-34 -17 -37 5 -3 19 9 31 27 19 28 20 29 15 7 -9 -34 -34 -53 -51 -39 -17 14
-34 3 -28 -19 5 -13 4 -14 -4 -3 -14 19 -36 4 -117 -81 -161 -170 -369 -494
-392 -610 -3 -18 -16 -49 -28 -68 -12 -19 -26 -46 -30 -59 -4 -14 -18 -44 -31
-68 -22 -42 -56 -163 -69 -248 -6 -38 -34 -132 -75 -255 -51 -152 -63 -236
-57 -405 3 -88 10 -185 16 -215 6 -30 22 -129 35 -219 l25 -164 -26 -221 c-14
-125 -25 -273 -24 -341 0 -66 -5 -171 -11 -232 -9 -86 -8 -144 1 -245 17 -186
60 -466 79 -508 10 -24 17 -90 22 -215 5 -99 13 -198 19 -220 6 -22 11 -91 11
-152 l0 -113 4625 0 4625 0 -6 48 c-3 26 -12 81 -19 122 -7 41 -19 107 -25
145 -6 39 -22 111 -35 160 -34 129 -53 217 -69 320 -14 87 -65 311 -127 562
l-31 123 21 84 c12 47 21 114 21 151 0 36 4 74 9 84 31 58 -3 450 -60 696 -45
193 -99 285 -286 484 -48 52 -92 106 -98 120 -15 39 -99 162 -129 190 -14 14
-26 32 -25 40 0 11 2 12 6 4 2 -7 9 -13 15 -13 7 0 6 5 -2 14 -6 8 -17 13 -24
10 -8 -3 -16 3 -19 13 -8 23 -25 48 -57 83 -14 14 -63 70 -110 123 -47 52 -89
96 -94 96 -5 1 -32 22 -60 48 -29 27 -94 86 -146 133 -51 47 -108 99 -126 117
-18 17 -35 28 -39 25 -3 -4 -3 1 0 9 7 20 -93 121 -325 329 -52 47 -126 115
-165 151 -38 36 -81 75 -94 85 -14 10 -34 28 -46 39 -12 11 -41 36 -66 56 -24
20 -65 57 -90 83 -26 25 -55 46 -65 46 -15 0 -16 2 -5 9 9 6 10 11 2 15 -6 4
-16 4 -23 0 -7 -4 -8 -3 -4 5 8 12 -5 25 -164 170 -52 47 -97 88 -100 91 -28
30 -307 254 -373 300 -12 8 -49 36 -81 62 -33 27 -64 48 -68 48 -4 0 -16 7
-25 15 -101 83 -223 175 -232 175 -6 0 -11 6 -11 14 0 13 -27 31 -42 28 -5 -1
-8 3 -8 10 0 13 -81 93 -92 90 -5 -1 -8 5 -8 13 0 8 -11 27 -25 42 -14 16 -34
41 -46 56 -14 19 -28 27 -40 24 -10 -3 -27 5 -41 20 -13 14 -30 22 -40 20 -9
-3 -17 -2 -16 2 2 18 -4 22 -17 11 -12 -10 -15 -10 -15 2 0 8 -20 26 -44 42
-24 15 -72 57 -107 92 -35 36 -88 78 -117 95 -64 37 -77 59 -63 101 17 48 13
70 -17 119 -29 45 -71 118 -128 224 -43 78 -133 328 -169 467 -9 37 -24 73
-33 81 -23 19 -109 39 -207 46 l-80 6 -8 65 c-11 92 0 372 23 590 11 102 23
214 26 250 3 36 7 77 8 92 1 15 10 36 20 47 13 15 14 20 4 24 -10 4 -11 7 0
18 6 7 12 29 12 49 0 23 3 30 9 21 14 -22 24 5 23 68 0 61 7 71 53 71 46 0
128 43 163 85 17 21 36 61 43 88 6 28 22 66 35 85 13 19 24 39 24 44 0 6 7 25
16 43 19 40 74 196 114 325 34 108 60 243 59 304 -1 56 -6 39 -23 -83 -9 -59
-23 -115 -33 -130 l-17 -26 -7 40 c-4 22 -5 77 -2 123 4 53 2 82 -4 82 -25 0
-33 -33 -36 -141 -3 -103 -6 -120 -32 -173 -33 -65 -138 -176 -166 -176 -14 0
-18 -6 -16 -27 5 -54 55 -118 75 -98 3 3 0 5 -7 5 -7 0 -9 5 -6 10 4 6 13 9
21 8 8 -2 20 8 27 22 15 29 35 32 51 8 8 -13 7 -26 -6 -50 -9 -18 -18 -41 -21
-50 -4 -11 -13 -15 -26 -11 -15 4 -21 0 -23 -13 0 -11 -2 -30 -3 -44 -1 -14
-8 -44 -14 -68 -12 -44 -33 -53 -39 -16 -3 16 -1 16 7 4 13 -18 13 -3 1 25 -5
11 -9 14 -9 7 -1 -8 -8 -11 -19 -8 -17 6 -26 -8 -46 -66 -3 -10 -12 -18 -20
-18 -9 0 -22 -13 -30 -29 -18 -33 -29 -39 -100 -47 -49 -6 -54 -4 -88 27 -47
44 -60 92 -47 172 10 64 38 115 104 187 38 42 85 106 85 115 0 4 -16 4 -35 1
-38 -8 -43 -3 -20 20 8 9 15 22 15 31 0 26 -83 -57 -110 -110 -14 -27 -26 -43
-28 -37 -3 7 1 62 8 124 7 61 12 139 12 174 -1 38 3 60 8 57 6 -3 10 1 10 9 0
39 44 4 69 -54 12 -27 25 -50 29 -50 13 0 42 62 42 91 0 35 27 50 45 26 19
-27 51 -21 64 11 14 35 9 174 -7 180 -7 2 -22 12 -34 22 l-23 19 24 17 c24 17
49 43 74 77 10 15 20 17 50 12 20 -4 37 -12 37 -18 0 -5 11 -24 24 -42 14 -17
32 -56 42 -86 30 -97 39 -89 36 32 -3 79 -1 109 7 105 6 -4 11 -20 11 -37 0
-16 5 -29 10 -29 6 0 10 -16 10 -35 0 -19 5 -35 10 -35 7 0 10 33 8 89 -2 65
2 94 12 106 13 16 15 15 27 -11 7 -16 12 -42 13 -58 0 -16 3 -27 6 -24 10 11
-16 198 -36 249 -23 62 -56 100 -78 92 -9 -4 -13 -2 -9 3 7 12 -35 38 -75 48
-32 7 -33 14 -13 79 8 27 15 70 15 95 0 84 2 97 10 107 4 6 8 30 8 55 -1 76 9
228 16 239 4 5 1 20 -6 31 -11 17 -11 22 1 30 11 6 12 12 5 22 -17 21 -17 88
-1 94 18 6 10 55 -11 70 -13 9 -13 12 2 17 20 8 21 27 0 27 -14 0 -14 1 0 16
9 8 16 21 17 27 0 7 2 22 3 35 2 13 -1 25 -6 28 -4 3 -6 10 -3 15 4 5 0 9 -8
9 -8 0 -20 7 -27 15 -10 12 -10 15 2 15 8 0 21 15 30 33 14 29 14 34 -3 62
-45 73 -48 95 -14 95 30 0 33 16 4 23 -12 3 -18 10 -14 17 4 6 -1 18 -11 25
-18 14 -18 14 4 15 14 0 20 4 17 10 -4 6 -2 17 5 25 9 10 7 16 -7 23 -17 10
-17 11 0 30 16 18 16 20 -3 37 -15 13 -17 22 -9 36 8 16 6 19 -13 19 -15 0
-27 9 -34 24 -13 28 -2 46 30 47 15 0 17 2 6 6 -8 3 -18 11 -22 18 -4 6 -23
12 -43 13 -57 2 -76 23 -32 36 21 7 21 7 2 16 -11 5 -15 9 -8 9 7 1 10 7 7 15
-3 7 2 16 11 20 25 9 9 24 -22 20 -23 -4 -24 -3 -8 4 18 8 17 9 -7 15 -15 4
-34 4 -42 1 -23 -9 -19 11 7 36 26 25 26 70 1 70 -8 0 -14 9 -14 19 0 11 -5
23 -10 26 -6 4 -8 16 -5 27 5 14 1 21 -14 25 -21 5 -23 9 -25 53 -1 14 -5 31
-9 38 -5 6 -6 16 -3 21 3 5 -6 12 -20 15 -34 9 -84 59 -84 85 0 11 -9 22 -20
26 -11 3 -27 19 -36 35 -10 16 -29 34 -43 40 -52 24 -56 28 -56 45 0 9 -10 25
-23 35 -15 12 -18 20 -10 23 8 3 6 7 -7 12 -22 7 -26 9 -83 47 -41 27 -102 83
-102 92 0 3 7 3 15 0 69 -27 -103 134 -185 173 -99 47 -101 48 -429 108 -77
14 -194 63 -185 77 3 4 -6 8 -20 8 -14 0 -26 5 -26 10 0 30 -80 69 -150 73
-14 1 -39 10 -57 20 -18 9 -38 17 -46 17 -16 0 -109 26 -142 40 l-20 9 20 1
c12 1 4 7 -20 14 -22 7 -39 18 -37 25 1 7 -11 11 -35 11 -21 0 -81 2 -133 4
-52 2 -113 2 -135 -1z m-692 -100 c-7 -2 -19 -2 -25 0 -7 3 -2 5 12 5 14 0 19
-2 13 -5z m-406 -129 c-3 -3 -12 -4 -19 -1 -8 3 -5 6 6 6 11 1 17 -2 13 -5z
m-597 -114 c-20 -13 -33 -13 -25 0 3 6 14 10 23 10 15 0 15 -2 2 -10z m910
-908 c0 -15 -2 -15 -10 -2 -13 20 -13 33 0 25 6 -3 10 -14 10 -23z m75 18 c3
-5 1 -10 -4 -10 -6 0 -11 5 -11 10 0 6 2 10 4 10 3 0 8 -4 11 -10z m-1075
-280 c0 -5 -7 -10 -15 -10 -8 0 -15 5 -15 10 0 6 7 10 15 10 8 0 15 -4 15 -10z
m2808 -499 c-2 -4 8 -18 22 -29 14 -12 19 -21 13 -22 -7 0 -13 6 -13 13 0 9
-3 8 -9 -2 -7 -11 -11 -10 -20 7 -14 26 -14 42 -1 42 6 0 9 -4 8 -9z m-40
-110 c3 -8 -1 -12 -9 -9 -7 2 -15 10 -17 17 -3 8 1 12 9 9 7 -2 15 -10 17 -17z
m57 -71 c3 -5 1 -10 -4 -10 -6 0 -11 5 -11 10 0 6 2 10 4 10 3 0 8 -4 11 -10z
m142 -186 c-3 -3 -12 -4 -19 -1 -8 3 -5 6 6 6 11 1 17 -2 13 -5z m-10 -40 c-3
-3 -12 -4 -19 -1 -8 3 -5 6 6 6 11 1 17 -2 13 -5z m-2673 -100 c8 -21 -12 -17
-24 6 -8 16 -8 18 4 14 8 -3 17 -12 20 -20z m36 -9 c0 -5 -5 -3 -10 5 -5 8
-10 20 -10 25 0 6 5 3 10 -5 5 -8 10 -19 10 -25z m15 -45 c3 -5 1 -10 -4 -10
-6 0 -11 5 -11 10 0 6 2 10 4 10 3 0 8 -4 11 -10z m2850 -20 c3 -5 -1 -10 -10
-10 -9 0 -13 5 -10 10 3 6 8 10 10 10 2 0 7 -4 10 -10z m-91 -20 c-10 -4 -21
-6 -24 -3 -8 7 24 22 34 16 5 -4 1 -10 -10 -13z m-2768 -17 c-7 -7 -26 7 -26
19 0 6 6 6 15 -2 9 -7 13 -15 11 -17z m2849 -13 c-3 -5 -10 -10 -16 -10 -5 0
-9 5 -9 10 0 6 7 10 16 10 8 0 12 -4 9 -10z m-2815 -45 c7 -8 9 -15 6 -15 -4
0 -14 7 -22 15 -9 8 -11 15 -6 15 5 0 15 -7 22 -15z m2960 -341 c0 -8 -5 -12
-10 -9 -6 4 -8 11 -5 16 9 14 15 11 15 -7z m830 -84 c0 -5 -4 -10 -10 -10 -5
0 -10 5 -10 10 0 6 5 10 10 10 6 0 10 -4 10 -10z m-45 -10 c4 -6 -5 -10 -20
-10 -15 0 -24 4 -20 10 3 6 12 10 20 10 8 0 17 -4 20 -10z m-70 -31 c-10 -15
-25 -10 -19 6 4 8 10 12 15 9 5 -3 7 -10 4 -15z m60 -36 c-22 -16 -35 -17 -35
-3 0 6 7 10 15 10 8 0 15 5 15 11 0 5 5 7 12 3 7 -5 5 -11 -7 -21z m-48 11
c-3 -3 -12 -4 -19 -1 -8 3 -5 6 6 6 11 1 17 -2 13 -5z m-27 -24 c0 -5 -4 -10
-10 -10 -5 0 -10 5 -10 10 0 6 5 10 10 10 6 0 10 -4 10 -10z m-731 -39 c2 -1
-2 -8 -9 -16 -11 -13 -15 -13 -21 -3 -16 25 -12 27 30 19z m-253 -668 c-11
-11 -19 6 -11 24 8 17 8 17 12 0 3 -10 2 -21 -1 -24z m-202 -78 c-4 -8 -8 -15
-10 -15 -2 0 -4 7 -4 15 0 8 4 15 10 15 5 0 7 -7 4 -15z m1330 -161 c3 -8 2
-12 -4 -9 -6 3 -10 10 -10 16 0 14 7 11 14 -7z m-1044 -1973 c0 -12 -29 -41
-40 -41 -19 0 -21 22 -4 35 22 17 44 19 44 6z m70 -82 c5 -53 19 -84 48 -102
17 -11 15 -27 -3 -27 -12 0 -13 -4 -4 -19 10 -15 8 -22 -10 -40 -17 -17 -19
-25 -11 -41 6 -11 13 -20 16 -20 13 0 74 49 104 83 31 34 70 50 70 27 0 -5 -4
-10 -10 -10 -22 0 -4 -81 23 -101 8 -6 -38 -49 -53 -49 -6 0 -10 -5 -10 -12 0
-6 -33 -41 -72 -77 -40 -36 -108 -101 -152 -146 -43 -44 -134 -137 -202 -206
-68 -70 -124 -130 -124 -133 0 -10 -16 -24 -70 -65 -56 -42 -201 -192 -241
-248 -16 -23 -51 -57 -77 -74 -26 -18 -79 -62 -117 -98 -97 -91 -179 -161
-250 -214 -33 -25 -91 -75 -129 -112 -60 -59 -71 -66 -97 -60 -23 5 -28 4 -23
-8 3 -9 -21 -41 -68 -87 -40 -40 -89 -95 -109 -121 -20 -27 -39 -46 -43 -42
-10 11 -7 73 5 73 5 0 8 4 5 9 -3 4 1 17 9 27 12 15 16 16 24 5 12 -19 25 4
13 25 -6 11 -5 26 4 43 16 30 18 51 4 51 -5 0 -12 -16 -16 -35 -5 -26 -12 -37
-31 -41 -20 -5 -24 -12 -20 -30 3 -18 0 -24 -14 -24 -11 0 -19 6 -19 14 0 7
-7 19 -15 26 -11 9 -12 16 -5 25 8 10 3 15 -22 20 l-33 8 35 15 c35 16 78 33
115 47 11 5 31 10 45 12 54 7 70 14 70 28 0 15 16 20 52 17 19 -2 53 52 43 68
-3 6 3 10 14 10 26 0 36 17 21 35 -9 11 -10 18 -1 29 17 20 5 39 -39 60 -42
20 -50 41 -24 61 15 11 15 14 -6 33 -22 20 -22 22 -4 28 59 19 61 20 57 65 -2
27 -11 52 -25 66 -21 22 -21 23 -2 23 13 0 20 7 21 22 1 13 10 29 20 36 13 10
14 16 6 19 -8 3 -13 22 -13 44 0 24 -5 39 -12 39 -7 1 2 7 20 15 30 13 37 23
33 53 -1 6 11 17 26 23 15 6 35 19 45 29 9 10 35 21 57 25 25 4 41 13 44 24 2
9 31 30 63 47 32 16 64 33 69 37 6 4 19 14 30 22 l20 14 -20 15 c-20 15 -20
15 2 16 12 0 24 -6 27 -12 4 -9 5 -8 5 2 -3 43 4 61 37 96 20 22 40 48 45 59
32 67 54 93 96 110 18 8 33 20 33 28 0 16 53 57 75 57 8 0 15 9 15 20 0 11 12
26 28 34 23 12 25 15 10 21 -10 4 -18 11 -18 15 0 4 8 10 18 14 37 12 122 88
122 109 0 4 7 7 15 7 8 0 15 4 15 10 0 5 15 16 33 24 18 7 49 32 69 55 19 22
40 41 46 41 6 0 17 6 24 13 12 11 115 67 124 67 15 0 0 -32 -18 -40 -13 -5
-18 -9 -12 -9 6 -1 9 -12 6 -26 -7 -41 24 -43 64 -4 l34 33 -25 13 c-30 16
-33 27 -4 20 29 -8 49 2 42 20 -4 11 1 14 23 11 27 -3 29 -6 34 -59z m-2336
-463 c3 -13 9 -32 12 -43 6 -16 5 -16 -8 -3 -18 18 -32 70 -19 70 5 0 12 -11
15 -24z m16 -91 c0 -8 -2 -15 -4 -15 -2 0 -6 7 -10 15 -3 8 -1 15 4 15 6 0 10
-7 10 -15z m947 -607 c-3 -7 -5 -2 -5 12 0 14 2 19 5 13 2 -7 2 -19 0 -25z m3
-122 c0 -2 -9 -6 -20 -9 -11 -3 -20 -1 -20 4 0 5 9 9 20 9 11 0 20 -2 20 -4z
m3663 -409 c17 -15 28 -30 25 -33 -3 -3 -13 2 -21 11 -9 8 -18 15 -21 15 -6 0
-56 49 -56 56 0 8 43 -20 73 -49z m67 3 c0 -5 -5 -10 -11 -10 -5 0 -7 5 -4 10
3 6 8 10 11 10 2 0 4 -4 4 -10z m11 -66 c13 -14 47 -41 75 -59 53 -34 70 -52
60 -62 -11 -11 -176 120 -176 140 0 14 17 6 41 -19z m-4954 -106 c-2 -13 -4
-5 -4 17 -1 22 1 32 4 23 2 -10 2 -28 0 -40z m5173 -12 c27 -27 17 -33 -11 -7
-13 12 -26 21 -31 21 -4 0 -8 7 -8 15 0 17 9 12 50 -29z m-55 -26 c3 -5 15
-10 25 -10 10 0 25 -7 34 -15 8 -8 19 -15 25 -15 6 0 11 -3 11 -7 0 -5 12 -14
27 -20 20 -10 29 -10 34 -2 4 8 13 2 25 -15 9 -15 40 -43 68 -61 66 -44 114
-85 100 -85 -6 0 -17 7 -24 15 -7 8 -19 15 -26 15 -8 0 -14 4 -14 9 0 5 -8 11
-17 15 -37 12 -108 64 -105 75 1 7 -2 9 -9 6 -6 -4 -30 7 -54 24 -24 17 -46
31 -50 31 -3 0 -23 11 -43 25 -20 14 -31 25 -25 25 7 0 15 -4 18 -10z m111
-27 c-7 -7 -26 7 -26 19 0 6 6 6 15 -2 9 -7 13 -15 11 -17z m-4296 -17 c-15
-15 -33 4 -19 20 10 12 14 12 20 2 5 -7 4 -17 -1 -22z m-958 -348 c-7 -7 -12
-8 -12 -2 0 14 12 26 19 19 2 -3 -1 -11 -7 -17z m1093 -88 c-3 -5 -12 -10 -18
-10 -7 0 -6 4 3 10 19 12 23 12 15 0z m-1795 -4 c0 -3 -4 -8 -10 -11 -5 -3
-10 -1 -10 4 0 6 5 11 10 11 6 0 10 -2 10 -4z m1760 -10 c0 -3 -4 -8 -10 -11
-5 -3 -10 -1 -10 4 0 6 5 11 10 11 6 0 10 -2 10 -4z m4765 -36 c3 -5 1 -10 -4
-10 -6 0 -11 5 -11 10 0 6 2 10 4 10 3 0 8 -4 11 -10z m-4281 -120 c14 -5 26
-15 26 -21 0 -8 -4 -8 -15 1 -8 7 -30 16 -48 20 -22 6 -25 8 -10 9 12 1 33 -3
47 -9z m-47 -21 c-10 -6 -22 -21 -27 -35 -6 -15 -15 -22 -24 -18 -9 3 -17 -3
-21 -16 -4 -12 -9 -19 -12 -16 -13 12 21 65 50 80 36 17 62 21 34 5z m43 -34
c0 -8 -4 -15 -10 -15 -5 0 -7 7 -4 15 4 8 8 15 10 15 2 0 4 -7 4 -15z m4465
-16 c11 -17 -1 -21 -15 -4 -8 9 -8 15 -2 15 6 0 14 -5 17 -11z m-4408 -31 c-3
-8 -6 -5 -6 6 -1 11 2 17 5 13 3 -3 4 -12 1 -19z m-190 -35 c5 20 5 20 38 5
14 -6 25 -17 25 -25 0 -7 5 -13 12 -13 6 0 9 -2 6 -5 -9 -9 -58 6 -58 17 0 5
6 6 13 2 10 -6 10 -4 0 7 -11 10 -15 11 -25 0 -11 -10 -8 -16 11 -32 13 -10
35 -20 50 -20 22 -2 23 -2 4 -6 -45 -9 -104 40 -102 84 0 14 3 12 11 -7 9 -21
12 -22 15 -7z m137 -9 c4 -10 1 -14 -6 -12 -15 5 -23 28 -10 28 5 0 13 -7 16
-16z m4796 -204 c0 -5 -5 -10 -11 -10 -5 0 -7 5 -4 10 3 6 8 10 11 10 2 0 4
-4 4 -10z m50 -52 c0 -12 -10 -9 -26 6 -20 21 -17 28 6 14 11 -7 20 -16 20
-20z m-7640 -285 c0 -10 -5 -25 -10 -33 -7 -11 -10 -7 -10 18 0 17 5 32 10 32
6 0 10 -8 10 -17z m-33 -65 c-3 -8 -6 -5 -6 6 -1 11 2 17 5 13 3 -3 4 -12 1
-19z m8123 -90 c0 -4 -9 1 -20 12 -11 11 -20 23 -20 27 0 3 9 -2 20 -12 11
-10 20 -22 20 -27z m-6387 -335 c-7 -2 -19 -2 -25 0 -7 3 -2 5 12 5 14 0 19
-2 13 -5z m-53 -7 c0 -2 -8 -10 -17 -17 -16 -13 -17 -12 -4 4 13 16 21 21 21
13z m-43 -68 c-3 -7 -5 -2 -5 12 0 14 2 19 5 13 2 -7 2 -19 0 -25z m190 0 c-3
-8 -6 -5 -6 6 -1 11 2 17 5 13 3 -3 4 -12 1 -19z m-224 -31 c3 -22 2 -35 -4
-32 -5 4 -9 22 -9 42 0 45 5 40 13 -10z"/>
<path d="M4960 12910 c-12 -8 -11 -10 7 -10 12 0 25 5 28 10 8 13 -15 13 -35
0z"/>
<path d="M4910 12890 c0 -5 5 -10 10 -10 6 0 10 5 10 10 0 6 -4 10 -10 10 -5
0 -10 -4 -10 -10z"/>
<path d="M4828 12838 c-16 -17 -28 -32 -28 -33 0 -11 59 22 73 41 17 23 17 24
0 24 -10 -1 -30 -15 -45 -32z"/>
<path d="M4767 12783 c-16 -19 -34 -73 -23 -73 8 0 49 81 43 86 -2 2 -11 -4
-20 -13z"/>
<path d="M4612 12500 c0 -19 2 -27 5 -17 2 9 2 25 0 35 -3 9 -5 1 -5 -18z"/>
<path d="M6840 11740 c0 -5 10 -10 23 -10 18 0 19 2 7 10 -19 13 -30 13 -30 0z"/>
<path d="M7570 11430 c0 -5 5 -10 10 -10 6 0 10 5 10 10 0 6 -4 10 -10 10 -5
0 -10 -4 -10 -10z"/>
<path d="M7635 11430 c-3 -5 -1 -10 4 -10 6 0 11 5 11 10 0 6 -2 10 -4 10 -3
0 -8 -4 -11 -10z"/>
<path d="M7005 10809 c-22 -6 -50 -7 -62 -4 -14 3 -25 -1 -31 -11 -6 -11 -14
-14 -23 -8 -18 12 -122 12 -130 1 -5 -8 -144 -19 -251 -21 -20 0 -35 -3 -33
-7 3 -3 -6 -4 -19 -2 -24 5 -77 -17 -108 -45 -20 -17 -24 -52 -7 -52 8 0 8 -4
-1 -15 -12 -14 -20 -95 -9 -95 3 0 10 5 17 12 9 9 12 9 12 -2 0 -13 2 -13 10
0 5 8 12 11 16 7 4 -3 1 -13 -5 -21 -7 -9 -8 -17 -2 -20 5 -3 19 6 32 21 l22
28 -6 -30 c-5 -27 -4 -28 9 -10 16 21 54 31 54 13 0 -7 7 -5 18 4 23 21 47 28
142 42 14 2 34 6 45 11 16 5 17 5 5 -4 -8 -5 -11 -13 -7 -17 3 -4 13 -1 22 6
17 14 77 15 148 1 27 -5 58 -7 70 -4 18 4 19 3 7 -6 -8 -6 -10 -11 -4 -11 6 0
14 3 18 7 9 9 46 11 46 3 0 -4 18 -10 40 -14 30 -5 38 -10 33 -22 -4 -10 -1
-15 8 -13 45 8 219 -47 219 -70 0 -10 52 -31 79 -32 23 -1 22 -3 -14 -20 -22
-10 -33 -19 -25 -19 70 -4 93 -9 100 -20 4 -7 13 -9 19 -6 6 4 21 4 32 1 15
-5 18 -10 10 -18 -18 -18 -13 -28 12 -25 14 2 21 -2 19 -10 -3 -19 22 -25 61
-14 34 10 62 3 55 -14 -1 -4 13 -12 32 -17 87 -20 124 -13 90 18 -11 10 -20
23 -20 29 0 6 4 5 9 -3 7 -11 15 -12 33 -4 22 10 22 11 -21 37 -23 15 -41 30
-38 33 3 3 16 -2 28 -11 20 -14 23 -14 36 2 12 16 14 16 27 0 15 -20 51 -24
61 -8 4 6 4 24 0 40 -5 22 -14 32 -33 37 -15 3 -36 12 -47 19 -11 8 -27 14
-37 14 -22 0 -23 13 -3 30 17 14 3 40 -21 40 -16 0 -19 16 -5 22 5 2 7 15 4
30 -6 33 -23 27 -23 -8 0 -17 -5 -24 -20 -24 -11 0 -20 -4 -20 -10 0 -5 10
-10 23 -10 28 -1 61 -25 52 -39 -9 -16 -32 -13 -39 4 -3 8 -12 15 -21 15 -8 0
-15 5 -15 10 0 6 -20 19 -45 30 -25 11 -45 23 -45 27 0 8 -47 33 -62 33 -11 0
-92 53 -96 62 -2 4 -19 12 -38 18 -19 6 -39 20 -44 31 -6 10 -17 19 -24 19 -8
0 -19 7 -26 16 -16 18 -91 56 -98 49 -3 -3 0 -5 6 -5 7 0 12 -5 12 -11 0 -7
-10 -9 -26 -5 -14 4 -32 2 -39 -4 -16 -13 -55 -4 -55 11 0 7 -12 8 -31 4 -22
-5 -29 -4 -25 4 4 6 6 11 4 10 -2 -1 -21 -5 -43 -10z m30 -25 c19 -16 19 -16
-5 -9 -31 9 -50 25 -29 25 7 0 23 -8 34 -16z m235 -14 c0 -5 -4 -10 -10 -10
-5 0 -10 5 -10 10 0 6 5 10 10 10 6 0 10 -4 10 -10z m-909 -93 c-10 -9 -11 -8
-5 6 3 10 9 15 12 12 3 -3 0 -11 -7 -18z m30 -5 c-5 -9 -20 -26 -32 -37 -23
-20 -23 -20 -9 0 41 54 59 70 41 37z m1379 -243 c11 -6 11 -8 2 -9 -9 0 -11
-7 -7 -22 6 -21 5 -22 -8 -5 -8 9 -20 17 -28 18 -8 1 -3 5 11 9 l25 8 -27 1
c-16 1 -28 6 -28 12 0 11 31 5 60 -12z m50 -3 c0 -11 -19 -15 -25 -6 -3 5 1
10 9 10 9 0 16 -2 16 -4z"/>
<path d="M7565 10690 c-8 -12 6 -70 17 -70 5 0 6 5 3 10 -3 6 3 10 14 10 12 0
21 2 21 5 0 11 -50 53 -55 45z"/>
<path d="M6152 10670 c0 -14 4 -36 8 -50 8 -24 8 -24 8 5 0 17 -3 39 -8 50 -8
18 -9 18 -8 -5z"/>
<path d="M6246 10654 c-10 -15 -16 -38 -13 -57 l3 -32 10 35 c9 34 9 33 15
-30 l6 -65 0 71 c0 39 3 76 7 82 14 23 -13 20 -28 -4z"/>
<path d="M6295 10630 c-17 -33 -21 -90 -5 -74 5 5 11 18 13 29 2 11 8 30 15
42 15 26 15 33 2 33 -5 0 -16 -13 -25 -30z"/>
<path d="M7600 10610 c0 -5 5 -10 10 -10 6 0 10 5 10 10 0 6 -4 10 -10 10 -5
0 -10 -4 -10 -10z"/>
<path d="M7653 10593 c-21 -8 -15 -22 7 -16 11 3 20 9 20 14 0 10 -8 10 -27 2z"/>
<path d="M6180 10541 c0 -6 5 -13 10 -16 6 -3 10 1 10 9 0 9 -4 16 -10 16 -5
0 -10 -4 -10 -9z"/>
<path d="M6706 10329 c-134 -15 -240 -69 -287 -145 -23 -38 -21 -55 4 -29 22
21 30 19 15 -5 -7 -11 -18 -20 -25 -20 -7 0 -13 -4 -13 -10 0 -5 -13 -25 -30
-43 -46 -53 -40 -73 10 -37 42 30 96 50 135 52 19 1 35 4 35 8 0 12 50 18 56
8 4 -5 16 -7 28 -3 42 13 71 14 85 2 12 -10 14 -9 8 6 -8 20 13 23 32 5 10
-11 15 -10 24 3 7 9 18 14 25 12 6 -3 12 0 12 6 0 6 18 11 43 10 34 -1 37 -2
17 -8 -27 -8 -25 -9 70 -27 13 -3 28 -11 33 -17 7 -9 10 -9 14 1 7 17 48 15
63 -3 18 -21 29 -19 40 10 11 30 26 32 35 5 7 -21 25 -28 25 -9 0 5 5 7 11 4
6 -4 8 -13 5 -21 -4 -11 -1 -12 13 -4 18 9 112 1 171 -15 84 -23 128 -25 206
-10 60 11 37 25 -43 26 -43 1 -85 1 -93 0 -8 0 0 6 18 14 37 17 41 27 10 24
-13 -1 -34 1 -48 5 -14 3 -44 8 -66 10 -23 2 -55 11 -70 19 -16 9 -44 23 -62
32 -18 10 -31 20 -28 22 2 2 21 -4 43 -15 44 -22 133 -37 133 -22 0 6 -5 10
-11 10 -20 0 -114 50 -141 75 -16 14 -48 30 -75 35 -27 5 -73 16 -103 25 -63
17 -144 20 -135 5 3 -5 14 -10 25 -10 10 0 20 -7 24 -15 3 -8 15 -15 26 -15
11 0 20 -5 20 -10 0 -6 -16 -8 -37 -5 -69 9 -234 7 -246 -3 -7 -5 -30 -12 -52
-15 -27 -4 -35 -3 -25 3 8 5 24 10 35 10 11 0 28 7 39 15 17 13 15 14 -20 8
-22 -3 -49 -12 -61 -19 -12 -8 -30 -14 -39 -14 -9 0 -27 -9 -41 -20 -27 -21
-48 -27 -38 -11 3 5 31 22 63 37 31 15 65 31 76 36 10 5 45 9 77 9 40 0 58 4
56 12 -1 8 15 12 50 12 29 -1 47 3 40 7 -14 9 -67 8 -161 -3z m144 -106 c0 -5
-16 -9 -35 -10 -19 -2 -35 2 -35 7 0 6 16 10 35 10 19 0 35 -3 35 -7z m315 -3
c3 -5 2 -10 -4 -10 -5 0 -13 5 -16 10 -3 6 -2 10 4 10 5 0 13 -4 16 -10z
m-675 -29 c0 -5 -7 -11 -15 -15 -15 -5 -20 5 -8 17 9 10 23 9 23 -2z m143 -33
c3 -10 7 -10 20 1 14 11 18 11 23 -3 4 -9 4 -19 1 -22 -11 -11 -67 8 -67 22 0
17 17 19 23 2z m-63 -18 c0 -5 -10 -10 -22 -9 -22 0 -22 1 -3 9 11 5 21 9 23
9 1 1 2 -3 2 -9z"/>
<path d="M7498 10303 c7 -3 16 -2 19 1 4 3 -2 6 -13 5 -11 0 -14 -3 -6 -6z"/>
<path d="M4835 10253 c-52 -8 -134 -34 -141 -44 -3 -5 -23 -17 -45 -26 -21 -8
-39 -20 -39 -25 0 -6 -16 -26 -35 -45 -19 -19 -35 -39 -35 -45 0 -5 -14 -14
-31 -20 l-31 -11 28 -25 27 -26 -39 -11 c-21 -7 -42 -10 -46 -8 -13 7 -9 -14
5 -25 19 -16 104 5 153 38 40 27 111 44 116 28 2 -5 19 0 38 11 29 15 54 18
143 16 87 -2 107 0 107 12 0 10 12 13 48 12 26 -1 57 3 69 9 25 14 149 16 157
3 3 -5 23 -12 43 -16 21 -4 50 -16 65 -27 28 -19 28 -19 28 0 0 56 -133 169
-240 204 -49 16 -96 21 -190 23 -69 2 -138 1 -155 -2z m155 -35 c-30 -5 -69
-13 -87 -17 -24 -7 -30 -6 -26 5 6 15 37 21 113 21 l55 0 -55 -9z m200 -49 c0
-5 -16 -9 -35 -9 -32 0 -43 8 -30 22 8 8 65 -3 65 -13z m-190 -64 c0 -19 5
-25 22 -25 12 0 18 -3 15 -6 -6 -6 -95 13 -106 23 -8 6 34 32 52 33 12 0 17
-8 17 -25z"/>
<path d="M7578 10243 c7 -3 16 -2 19 1 4 3 -2 6 -13 5 -11 0 -14 -3 -6 -6z"/>
<path d="M4455 10150 c-3 -5 -1 -10 4 -10 6 0 11 5 11 10 0 6 -2 10 -4 10 -3
0 -8 -4 -11 -10z"/>
<path d="M6685 10100 c-3 -5 -2 -10 4 -10 5 0 13 5 16 10 3 6 2 10 -4 10 -5 0
-13 -4 -16 -10z"/>
<path d="M8135 10030 c-3 -6 1 -7 9 -4 18 7 21 14 7 14 -6 0 -13 -4 -16 -10z"/>
<path d="M4706 9972 c-3 -6 -1 -14 5 -17 14 -9 20 -2 10 14 -6 8 -11 9 -15 3z"/>
<path d="M6500 9940 c-9 -6 -10 -10 -3 -10 6 0 15 5 18 10 8 12 4 12 -15 0z"/>
<path d="M6530 9934 c-14 -8 -36 -12 -50 -9 l-25 6 22 -16 c18 -13 26 -13 50
-3 36 16 61 38 41 37 -7 -1 -24 -7 -38 -15z"/>
<path d="M6595 9930 c-11 -4 -33 -13 -50 -20 -28 -11 -28 -13 -10 -20 24 -10
288 -12 405 -3 72 6 80 8 50 14 -19 4 -45 5 -57 3 -11 -3 -63 0 -115 6 -51 7
-111 14 -132 16 -22 2 -46 6 -55 8 -9 3 -25 1 -36 -4z"/>
<path d="M4632 9908 c-7 -7 -12 -24 -12 -38 0 -24 6 -28 72 -45 108 -28 309
-27 452 3 93 20 166 44 166 56 0 5 -243 -2 -300 -9 -31 -4 -50 -3 -43 2 7 5
-46 8 -123 8 -119 0 -137 2 -145 18 -11 20 -49 23 -67 5z"/>
<path d="M9243 9685 c0 -22 2 -30 4 -17 2 12 2 30 0 40 -3 9 -5 -1 -4 -23z"/>
<path d="M7962 9549 c2 -6 8 -10 13 -10 5 0 11 4 13 10 2 6 -4 11 -13 11 -9 0
-15 -5 -13 -11z"/>
<path d="M8750 9276 c0 -9 5 -16 10 -16 6 0 10 4 10 9 0 6 -4 13 -10 16 -5 3
-10 -1 -10 -9z"/>
<path d="M7633 9133 c-22 -8 -14 -23 13 -23 15 0 24 5 22 12 -5 14 -18 18 -35
11z"/>
<path d="M6449 9123 c-9 -2 -22 -15 -30 -30 -8 -14 -35 -35 -64 -48 -44 -19
-75 -23 -238 -29 -183 -7 -223 -14 -259 -44 -10 -9 -18 -12 -18 -8 0 3 -14 -1
-30 -9 -35 -18 -174 -55 -208 -55 -13 0 -42 9 -65 19 -24 11 -56 23 -72 27
-17 4 -39 13 -51 21 -11 7 -24 10 -27 6 -4 -3 -7 -2 -7 4 0 15 -36 25 -94 28
-26 1 -51 7 -55 14 -5 7 -29 9 -67 7 l-59 -4 -3 -86 c-1 -47 1 -86 6 -86 4 0
23 -20 42 -45 19 -25 40 -45 47 -45 7 0 15 -11 19 -24 3 -13 15 -27 26 -30 19
-4 20 -7 7 -22 -12 -16 -12 -17 5 -11 28 11 69 -19 61 -45 -6 -17 -4 -19 17
-13 12 4 25 10 28 14 15 18 173 17 203 -1 28 -17 134 -23 152 -8 7 6 19 10 27
9 19 -3 66 10 118 33 94 42 106 47 130 54 14 4 33 7 43 5 10 -1 17 4 17 13 0
18 16 22 22 5 3 -8 16 -8 46 2 42 12 53 24 30 32 -10 3 -10 8 1 21 11 13 23
16 49 11 24 -4 38 -2 43 7 6 10 13 10 26 2 10 -6 18 -15 18 -20 1 -35 50 -39
87 -6 11 9 27 12 41 8 35 -8 49 13 41 64 -4 26 -3 45 4 49 14 9 52 128 52 166
0 46 -18 60 -61 48z m-429 -343 c0 -11 -30 -21 -42 -14 -7 5 -4 12 7 20 18 13
35 10 35 -6z m71 10 c37 0 38 -16 2 -23 -16 -3 -36 -9 -45 -12 -15 -6 -18 -2
-18 20 0 21 4 26 16 21 9 -3 29 -6 45 -6z"/>
<path d="M4375 8915 c4 -11 11 -40 16 -65 5 -25 13 -54 18 -65 8 -19 14 -38
44 -150 9 -31 11 -63 6 -85 -8 -38 -1 -122 10 -115 4 2 7 -17 7 -43 -1 -33 3
-46 12 -44 14 2 17 -24 2 -33 -5 -3 -7 -12 -4 -20 4 -8 10 -13 14 -10 4 3 11
-2 14 -11 9 -23 7 -31 -4 -14 -16 26 -20 5 -6 -35 11 -31 15 -35 19 -20 2 11
3 5 1 -12 -3 -39 11 -44 20 -7 4 15 9 24 12 22 2 -3 0 -17 -6 -32 -7 -19 -7
-41 2 -74 6 -26 13 -41 16 -34 2 6 8 12 14 12 5 0 7 -9 3 -19 -3 -11 -2 -28 3
-38 13 -25 30 -62 43 -98 10 -27 12 -28 19 -10 9 22 13 13 10 -23 -2 -32 70
-148 82 -130 7 9 8 4 4 -14 -6 -28 7 -39 18 -15 3 6 3 2 1 -10 -3 -12 -1 -24
5 -28 6 -3 7 -11 4 -17 -4 -7 -2 -8 4 -4 8 5 12 0 12 -13 0 -11 7 -26 15 -35
8 -8 15 -19 15 -25 0 -5 5 -13 10 -16 7 -4 8 3 4 20 -6 25 -5 27 17 20 22 -7
23 -7 9 10 -13 15 -13 18 -1 14 22 -8 24 -25 5 -43 -12 -13 -13 -20 -4 -31 6
-7 17 -12 23 -9 7 2 23 -13 37 -34 28 -42 39 -66 17 -39 -14 17 -15 16 -20 -3
-3 -13 -1 -18 6 -13 6 4 8 0 4 -10 -4 -12 -1 -17 9 -17 9 0 14 -6 11 -13 -3
-8 -1 -20 4 -28 7 -11 10 -9 15 9 5 18 9 20 20 11 14 -12 20 -34 7 -26 -5 3
-14 -1 -21 -9 -7 -8 -8 -14 -2 -14 5 0 10 -6 10 -13 0 -8 9 -22 20 -32 11 -10
20 -26 20 -36 0 -10 5 -21 11 -25 8 -4 9 1 4 17 -7 21 -7 22 9 6 11 -10 14
-25 11 -40 -5 -17 3 -33 32 -66 l38 -42 23 41 c15 26 18 39 10 38 -8 -2 -13 8
-13 28 0 35 -24 64 -54 64 -30 0 -26 17 7 28 26 10 25 10 -14 11 -28 1 -44 6
-48 16 -4 12 -2 13 12 6 21 -11 48 2 38 18 -4 6 -16 11 -27 11 -10 0 -19 7
-19 15 0 8 7 15 15 15 8 0 15 8 15 19 0 14 -6 18 -26 15 -24 -2 -26 0 -21 26
4 15 3 30 0 34 -6 6 -12 32 -16 76 -1 19 2 24 16 22 20 -3 21 6 3 31 -16 21
-26 22 -26 2 0 -8 -5 -15 -11 -15 -7 0 -9 12 -5 35 6 29 3 36 -19 51 -14 9
-25 25 -25 36 0 15 -5 18 -22 13 -18 -6 -20 -5 -11 5 13 14 -1 65 -24 88 -7 7
-13 18 -13 23 0 6 -11 25 -25 43 -14 18 -25 40 -25 48 0 9 -7 21 -15 28 -8 7
-15 20 -16 29 0 9 -9 30 -20 46 -11 17 -22 38 -26 49 -3 10 -17 39 -30 63 -14
27 -23 61 -23 88 0 33 -6 51 -25 71 -13 14 -22 31 -19 36 8 12 -6 69 -16 63
-17 -11 -31 26 -32 90 -1 57 -4 68 -19 72 -13 4 -19 14 -19 33 0 16 -6 31 -12
33 -10 4 -10 8 1 15 11 8 7 16 -18 39 -17 17 -31 38 -31 47 0 9 -7 16 -15 16
-9 0 -15 9 -15 23 0 24 -17 47 -35 47 -6 0 -16 -12 -22 -27 l-11 -28 -1 35
c-1 19 -9 44 -18 55 l-16 20 8 -20z m272 -957 c-3 -8 -6 -5 -6 6 -1 11 2 17 5
13 3 -3 4 -12 1 -19z m158 -256 c-3 -3 -11 0 -18 7 -9 10 -8 11 6 5 10 -3 15
-9 12 -12z m25 -52 c0 -5 -4 -10 -10 -10 -5 0 -10 5 -10 10 0 6 5 10 10 10 6
0 10 -4 10 -10z m182 -277 c18 -16 25 -43 11 -43 -5 0 -16 14 -25 30 -19 33
-14 38 14 13z m89 -79 c-2 -5 -7 -19 -12 -31 -13 -36 -29 -37 -18 -1 6 23 5
34 -4 40 -7 5 -2 7 13 5 14 -2 23 -8 21 -13z m37 -89 c-3 -3 -9 2 -12 12 -6
14 -5 15 5 6 7 -7 10 -15 7 -18z"/>
<path d="M4390 8690 c0 -11 5 -20 10 -20 6 0 10 9 10 20 0 11 -4 20 -10 20 -5
0 -10 -9 -10 -20z"/>
<path d="M4415 8630 c3 -19 8 -52 12 -72 3 -21 9 -35 13 -33 12 7 0 86 -17
115 -14 25 -14 24 -8 -10z"/>
<path d="M6945 8650 c3 -5 8 -10 11 -10 2 0 4 5 4 10 0 6 -5 10 -11 10 -5 0
-7 -4 -4 -10z"/>
<path d="M4958 8633 c-8 -10 -18 -26 -21 -36 -5 -13 -15 -18 -34 -16 -16 2
-34 0 -41 -5 -8 -5 -18 -4 -25 3 -22 22 -36 13 -24 -14 7 -14 17 -25 24 -25
12 0 43 -54 43 -77 0 -7 5 -13 10 -13 6 0 10 -7 10 -15 0 -8 6 -15 14 -15 8 0
27 -16 43 -35 15 -19 51 -59 78 -89 28 -30 61 -76 75 -103 14 -26 31 -52 38
-56 10 -7 11 -12 1 -23 -9 -12 -9 -17 3 -27 9 -7 18 -23 21 -37 11 -53 36
-105 56 -118 12 -8 21 -21 21 -29 0 -7 7 -16 15 -19 8 -4 15 -15 15 -25 0 -10
7 -19 15 -19 8 0 19 -9 25 -20 9 -17 28 -28 105 -61 11 -4 42 -15 68 -24 27
-8 61 -22 77 -30 16 -8 31 -11 34 -6 7 11 96 11 96 0 0 -8 -32 -21 -46 -18
-22 4 -34 -2 -34 -16 0 -8 5 -15 11 -15 7 0 18 -8 25 -17 11 -15 15 -15 23 -4
7 10 13 11 31 1 12 -6 39 -9 62 -6 32 5 39 3 35 -9 -4 -10 -1 -12 10 -8 12 5
14 1 8 -18 -7 -21 -6 -22 9 -7 23 23 20 45 -6 52 -23 6 -23 7 -4 21 13 10 23
12 30 5 13 -13 79 -13 71 0 -8 12 3 50 14 50 5 0 6 -11 4 -24 -3 -13 -1 -31 4
-40 8 -14 12 -14 43 3 40 21 56 57 21 48 -12 -3 -21 -1 -21 4 0 4 -6 6 -12 4
-7 -3 -24 4 -37 14 l-24 19 23 7 c17 5 19 9 10 15 -8 5 -14 17 -15 28 -1 17 3
19 32 15 22 -4 33 -2 33 6 0 7 -4 9 -10 6 -5 -3 -16 -3 -22 1 -7 5 -19 9 -28
10 -8 2 -35 6 -60 11 l-45 8 45 6 45 6 -41 1 c-39 2 -72 -16 -57 -31 3 -4 -4
-7 -16 -7 -14 0 -20 4 -15 11 5 9 -4 10 -31 5 -28 -6 -42 -3 -56 10 -11 9 -22
14 -27 10 -4 -4 1 -13 10 -20 17 -12 15 -26 -4 -26 -8 0 -30 44 -32 64 -1 5
-8 11 -16 12 -8 2 -34 8 -58 13 -23 4 -50 15 -60 24 -9 8 -32 18 -50 22 -18 4
-30 10 -27 15 10 15 -16 22 -32 8 -13 -11 -18 -9 -30 9 -14 21 -17 22 -44 7
-28 -14 -30 -14 -39 11 -6 15 -17 25 -30 25 -17 0 -19 3 -11 19 24 43 105 49
276 18 50 -9 124 -19 165 -22 70 -6 73 -5 50 9 l-25 15 33 1 c23 0 32 -5 32
-16 0 -22 67 -14 260 31 80 18 159 35 175 37 39 4 41 13 12 44 l-23 25 -12
-25 c-9 -20 -21 -26 -65 -31 -70 -9 -92 -2 -107 35 -13 32 -30 31 -30 -1 0
-11 -11 -31 -25 -44 -22 -22 -32 -25 -104 -25 -86 0 -100 8 -102 62 -1 19 -3
17 -10 -9 -12 -40 -32 -52 -108 -59 -69 -8 -111 0 -111 21 0 19 -5 19 -33 0
-20 -13 -26 -13 -51 0 -24 13 -31 13 -56 0 -39 -20 -49 -19 -75 9 -12 13 -26
25 -32 27 -5 2 -13 21 -17 42 -5 27 -4 37 3 32 6 -3 11 -15 11 -25 0 -10 5
-22 12 -26 8 -5 10 8 5 50 -6 62 4 77 41 57 15 -8 22 -8 26 2 3 9 9 7 19 -5
13 -16 15 -16 26 8 10 24 16 26 48 21 20 -4 40 -12 44 -19 6 -9 12 -8 27 5 27
25 189 25 208 0 12 -17 14 -17 27 2 13 16 30 20 117 23 96 4 102 3 107 -17 6
-24 28 -28 36 -7 8 21 65 46 104 46 23 0 42 -8 58 -25 14 -13 25 -20 25 -14 0
5 15 18 33 29 47 30 123 21 157 -19 l24 -28 33 35 c25 27 36 32 46 24 8 -7 24
-13 38 -15 25 -4 47 -48 48 -98 1 -16 7 -26 16 -26 12 0 13 9 8 40 -4 29 -3
38 5 33 8 -4 12 0 12 11 0 11 7 28 15 39 13 18 14 16 15 -23 0 -24 5 -43 10
-43 6 0 10 -15 11 -32 l1 -33 10 28 c5 15 14 25 18 22 5 -3 11 -1 15 5 3 5 15
10 26 10 10 0 19 5 19 10 0 6 8 10 18 10 20 0 91 71 111 111 7 15 12 45 9 68
-2 23 0 41 4 41 4 0 11 18 14 41 6 34 11 41 36 46 35 7 44 19 28 38 -14 17
-65 21 -55 5 11 -18 -5 -30 -24 -18 -13 8 -31 8 -67 0 -33 -8 -38 -10 -14 -8
52 5 61 -1 48 -30 -7 -15 -20 -24 -33 -24 -13 0 -28 -7 -35 -15 -7 -8 -17 -12
-23 -8 -6 4 -8 0 -4 -9 6 -17 -18 -28 -62 -28 -14 0 -40 -5 -58 -12 -28 -10
-36 -10 -43 2 -8 12 -10 12 -15 -2 -5 -13 -25 -16 -113 -18 -346 -5 -474 -11
-534 -24 -37 -8 -71 -17 -77 -20 -16 -11 -291 -16 -291 -5 0 5 -10 9 -21 9
-19 0 -71 12 -119 27 -8 3 -100 6 -204 8 l-189 3 -16 26 c-13 22 -13 28 -1 51
13 25 13 28 -5 42 -14 11 -16 17 -7 20 17 7 15 23 -3 23 -8 0 -15 -4 -15 -10
0 -5 -6 -10 -14 -10 -10 0 -14 9 -13 26 2 33 -14 41 -35 17z m35 -58 c1 -5 -6
-11 -15 -13 -11 -2 -18 3 -18 13 0 17 30 18 33 0z m747 -915 c0 -5 -4 -10 -10
-10 -5 0 -10 5 -10 10 0 6 5 10 10 10 6 0 10 -4 10 -10z"/>
<path d="M7508 8558 c-3 -7 -1 -24 3 -38 6 -22 7 -20 8 13 1 38 -3 47 -11 25z"/>
<path d="M4431 8488 c1 -7 5 -24 9 -38 8 -24 8 -24 9 7 1 17 -3 35 -9 38 -5 3
-10 0 -9 -7z"/>
<path d="M7531 8467 c-20 -22 -29 -67 -13 -67 22 0 59 74 43 85 -5 2 -18 -6
-30 -18z"/>
<path d="M4452 8400 c0 -14 2 -19 5 -12 2 6 2 18 0 25 -3 6 -5 1 -5 -13z"/>
<path d="M7430 8254 c0 -9 5 -14 12 -12 18 6 21 28 4 28 -9 0 -16 -7 -16 -16z"/>
<path d="M6650 8220 c0 -5 5 -10 11 -10 5 0 7 5 4 10 -3 6 -8 10 -11 10 -2 0
-4 -4 -4 -10z"/>
<path d="M6407 8165 c-20 -28 -15 -30 42 -19 30 6 31 8 15 25 -23 25 -35 23
-57 -6z"/>
<path d="M6640 8170 c0 -5 -12 -10 -26 -10 -14 0 -23 -4 -20 -9 7 -11 -16 -21
-41 -17 -10 2 -12 1 -5 -1 29 -10 9 -20 -25 -12 -42 9 -59 4 -19 -7 33 -8 34
-28 1 -22 -14 3 -25 1 -25 -3 0 -5 -15 -9 -34 -9 -18 0 -39 -6 -45 -14 -7 -8
-32 -20 -56 -27 -26 -8 -46 -20 -48 -31 -4 -12 -15 -18 -35 -18 -17 0 -40 -10
-56 -25 -15 -14 -33 -25 -41 -25 -8 0 -18 -7 -23 -16 -5 -9 -12 -15 -15 -15
-21 3 -44 0 -56 -8 -12 -8 -12 -12 2 -25 17 -18 87 -22 87 -5 0 5 4 7 10 4 5
-3 35 1 67 10 32 9 69 19 83 22 14 3 44 19 68 34 24 16 49 29 56 29 8 0 16 7
20 15 3 8 13 15 22 15 31 0 74 33 74 58 0 19 4 22 20 17 17 -5 20 -2 18 21 -2
15 3 29 10 32 7 2 19 10 26 18 8 8 22 14 30 14 9 0 16 5 16 10 0 6 -9 10 -20
10 -11 0 -20 -4 -20 -10z"/>
<path d="M7510 8145 c8 -20 6 -23 -6 -18 -10 4 -25 -5 -40 -23 -27 -33 -30
-57 -10 -73 18 -16 46 0 68 39 13 23 14 34 4 64 -6 20 -14 36 -18 36 -4 0 -3
-11 2 -25z"/>
<path d="M7576 8154 c-22 -21 -21 -54 2 -54 25 0 42 19 42 47 0 27 -21 30 -44
7z"/>
<path d="M7578 8073 c7 -3 16 -2 19 1 4 3 -2 6 -13 5 -11 0 -14 -3 -6 -6z"/>
<path d="M7274 7946 c-3 -15 -4 -30 0 -33 3 -4 6 1 6 10 0 8 6 17 13 20 9 3 9
7 0 17 -9 10 -13 7 -19 -14z"/>
<path d="M5382 7718 c3 -7 12 -14 21 -16 12 -2 15 1 11 12 -7 19 -38 22 -32 4z"/>
<path d="M5705 7610 c-3 -5 -1 -10 4 -10 6 0 11 5 11 10 0 6 -2 10 -4 10 -3 0
-8 -4 -11 -10z"/>
<path d="M4875 7523 c3 -8 5 -18 5 -21 0 -8 20 20 20 29 0 3 -7 6 -15 6 -10 0
-14 -6 -10 -14z"/>
<path d="M5978 7513 c7 -3 16 -2 19 1 4 3 -2 6 -13 5 -11 0 -14 -3 -6 -6z"/>
<path d="M5305 7440 c-8 -13 4 -32 16 -25 12 8 12 35 0 35 -6 0 -13 -4 -16
-10z"/>
<path d="M6587 7109 c7 -7 15 -10 18 -7 3 3 -2 9 -12 12 -14 6 -15 5 -6 -5z"/>
<path d="M6480 7050 c0 -5 5 -10 11 -10 5 0 7 5 4 10 -3 6 -8 10 -11 10 -2 0
-4 -4 -4 -10z"/>
<path d="M5785 6890 c-3 -5 1 -10 10 -10 9 0 13 5 10 10 -3 6 -8 10 -10 10 -2
0 -7 -4 -10 -10z"/>
<path d="M5811 6185 c1 -19 18 -51 18 -35 0 8 -4 22 -9 30 -5 8 -9 11 -9 5z"/>
</g>
</svg>
